<svg width="25" height="31" viewBox="0 0 25 31" fill="none" xmlns="http://www.w3.org/2000/svg">
<path d="M12.4987 0.890625L0.832031 6.19366V14.1482C0.832031 21.5062 5.80981 28.3868 12.4987 30.0573C19.1876 28.3868 24.1654 21.5062 24.1654 14.1482V6.19366L12.4987 0.890625Z" fill="#1E435B"/>
<path d="M10.8949 20.6406C10.7761 20.6406 10.6648 20.6218 10.5609 20.5842C10.457 20.5473 10.3605 20.484 10.2714 20.3945L6.44171 16.5467C6.27843 16.3826 6.20035 16.1699 6.20748 15.9086C6.2152 15.6479 6.3007 15.4356 6.46398 15.2715C6.62726 15.1074 6.83508 15.0254 7.08742 15.0254C7.33977 15.0254 7.54758 15.1074 7.71086 15.2715L10.8949 18.4706L18.443 10.8867C18.6062 10.7227 18.8179 10.6406 19.078 10.6406C19.3375 10.6406 19.5488 10.7227 19.7121 10.8867C19.8754 11.0508 19.957 11.2631 19.957 11.5238C19.957 11.7851 19.8754 11.9978 19.7121 12.1619L11.5183 20.3945C11.4292 20.484 11.3328 20.5473 11.2289 20.5842C11.1249 20.6218 11.0136 20.6406 10.8949 20.6406Z" fill="#2DC5F5"/>
</svg>
